# xmcd
#
# Track frame offsets:
#  150
#  19400
#  41595
#  56972
#  67027
#  86462
#  97190
#  106672
#  135248
#  153927
#
# Disc length: 2283 seconds
#
# Revision: 0
# Processed by: cddbd v1.5.1PL2 Copyright (c) Steve Scherf et al.
# Submitted via: Collectorz.com Music Collector 6.9
#
DISCID=8008e90a
DTITLE=Midlife Crisis - Hill, What Hill?
DYEAR=1900
DGENRE=
TTITLE0=Peter Gunn
TTITLE1=I Feel Good
TTITLE2=Have You Ever Seen The Rain
TTITLE3=Rock Around The Clock
TTITLE4=Unchain My Heart
TTITLE5=See You Later Alligator
TTITLE6=Guitar Boogie
TTITLE7=Moondance
TTITLE8=Can't Get Enough
TTITLE9=Hold Back Your Love
EXTD=
EXTT0=
EXTT1=
EXTT2=
EXTT3=
EXTT4=
EXTT5=
EXTT6=
EXTT7=
EXTT8=
EXTT9=
PLAYORDER=
